grf
version=1
nRows=16
nColumns=46
inDegrees=yes
endheader
time	ground_force_1_vx	ground_force_1_vy	ground_force_1_vz	ground_force_1_px	ground_force_1_py	ground_force_1_pz	ground_moment_1_mx	ground_moment_1_my	ground_moment_1_mz	ground_force_2_vx	ground_force_2_vy	ground_force_2_vz	ground_force_2_px	ground_force_2_py	ground_force_2_pz	ground_moment_2_mx	ground_moment_2_my	ground_moment_2_mz	ground_force_3_vx	ground_force_3_vy	ground_force_3_vz	ground_force_3_px	ground_force_3_py	ground_force_3_pz	ground_moment_3_mx	ground_moment_3_my	ground_moment_3_mz	ground_force_4_vx	ground_force_4_vy	ground_force_4_vz	ground_force_4_px	ground_force_4_py	ground_force_4_pz	ground_moment_4_mx	ground_moment_4_my	ground_moment_4_mz	ground_force_5_vx	ground_force_5_vy	ground_force_5_vz	ground_force_5_px	ground_force_5_py	ground_force_5_pz	ground_moment_5_mx	ground_moment_5_my	ground_moment_5_mz
5.635000	0.000000	0.000000	0.000000	0.000000	0.000000	0.000000	0.000000	0.000000	0.000000	0.000000	0.000000	0.000000	0.000000	0.000000	0.000000	0.000000	0.000000	0.000000	0.000000	0.000000	0.000000	0.000000	0.000000	0.000000	0.000000	0.000000	0.000000	0.135005	460.556904	-75.938021	0.191773	0.000000	-1.072700	0.000000	6.242779	0.000000	-1.365900	433.442447	71.663022	0.207560	0.000000	-1.396806	-0.000000	-5.271263	-0.000000
5.635500	0.000000	0.000000	0.000000	0.000000	0.000000	0.000000	0.000000	0.000000	0.000000	0.000000	0.000000	0.000000	0.000000	0.000000	0.000000	0.000000	0.000000	0.000000	0.000000	0.000000	0.000000	0.000000	0.000000	0.000000	0.000000	0.000000	0.000000	0.150840	460.461422	-75.919971	0.191785	0.000000	-1.072690	0.000000	6.242087	0.000000	-1.395781	433.543494	71.666256	0.207593	0.000000	-1.396815	-0.000000	-5.270123	-0.000000
5.636000	0.000000	0.000000	0.000000	0.000000	0.000000	0.000000	0.000000	0.000000	0.000000	0.000000	0.000000	0.000000	0.000000	0.000000	0.000000	0.000000	0.000000	0.000000	0.000000	0.000000	0.000000	0.000000	0.000000	0.000000	0.000000	0.000000	0.000000	0.166543	460.367797	-75.901471	0.191797	0.000000	-1.072681	0.000000	6.241602	0.000000	-1.424193	433.644039	71.669280	0.207625	0.000000	-1.396825	-0.000000	-5.269035	-0.000000
5.636500	0.000000	0.000000	0.000000	0.000000	0.000000	0.000000	0.000000	0.000000	0.000000	0.000000	0.000000	0.000000	0.000000	0.000000	0.000000	0.000000	0.000000	0.000000	0.000000	0.000000	0.000000	0.000000	0.000000	0.000000	0.000000	0.000000	0.000000	0.182093	460.276074	-75.882532	0.191809	0.000000	-1.072671	0.000000	6.241325	0.000000	-1.451127	433.744042	71.672085	0.207657	0.000000	-1.396834	-0.000000	-5.267998	-0.000000
5.637000	0.000000	0.000000	0.000000	0.000000	0.000000	0.000000	0.000000	0.000000	0.000000	0.000000	0.000000	0.000000	0.000000	0.000000	0.000000	0.000000	0.000000	0.000000	0.000000	0.000000	0.000000	0.000000	0.000000	0.000000	0.000000	0.000000	0.000000	0.197471	460.186296	-75.863161	0.191821	0.000000	-1.072662	0.000000	6.241254	0.000000	-1.476580	433.843463	71.674666	0.207689	0.000000	-1.396843	-0.000000	-5.267008	-0.000000
5.637500	0.000000	0.000000	0.000000	0.000000	0.000000	0.000000	0.000000	0.000000	0.000000	0.000000	0.000000	0.000000	0.000000	0.000000	0.000000	0.000000	0.000000	0.000000	0.000000	0.000000	0.000000	0.000000	0.000000	0.000000	0.000000	0.000000	0.000000	0.212656	460.098502	-75.843366	0.191832	0.000000	-1.072652	0.000000	6.241389	0.000000	-1.500550	433.942262	71.677023	0.207720	0.000000	-1.396852	-0.000000	-5.266064	-0.000000
5.638000	0.000000	0.000000	0.000000	0.000000	0.000000	0.000000	0.000000	0.000000	0.000000	0.000000	0.000000	0.000000	0.000000	0.000000	0.000000	0.000000	0.000000	0.000000	0.000000	0.000000	0.000000	0.000000	0.000000	0.000000	0.000000	0.000000	0.000000	0.227627	460.012726	-75.823152	0.191844	0.000000	-1.072643	0.000000	6.241726	0.000000	-1.523042	434.040386	71.679156	0.207751	0.000000	-1.396861	-0.000000	-5.265159	-0.000000
5.638500	0.000000	0.000000	0.000000	0.000000	0.000000	0.000000	0.000000	0.000000	0.000000	0.000000	0.000000	0.000000	0.000000	0.000000	0.000000	0.000000	0.000000	0.000000	0.000000	0.000000	0.000000	0.000000	0.000000	0.000000	0.000000	0.000000	0.000000	0.242362	459.928988	-75.802523	0.191855	0.000000	-1.072633	0.000000	6.242263	0.000000	-1.544064	434.137776	71.681071	0.207781	0.000000	-1.396869	-0.000000	-5.264293	-0.000000
5.639000	0.000000	0.000000	0.000000	0.000000	0.000000	0.000000	0.000000	0.000000	0.000000	0.000000	0.000000	0.000000	0.000000	0.000000	0.000000	0.000000	0.000000	0.000000	0.000000	0.000000	0.000000	0.000000	0.000000	0.000000	0.000000	0.000000	0.000000	0.256837	459.847293	-75.781477	0.191866	0.000000	-1.072623	0.000000	6.242992	0.000000	-1.563624	434.234367	71.682774	0.207811	0.000000	-1.396878	-0.000000	-5.263461	-0.000000
5.639500	0.000000	0.000000	0.000000	0.000000	0.000000	0.000000	0.000000	0.000000	0.000000	0.000000	0.000000	0.000000	0.000000	0.000000	0.000000	0.000000	0.000000	0.000000	0.000000	0.000000	0.000000	0.000000	0.000000	0.000000	0.000000	0.000000	0.000000	0.271028	459.767634	-75.760011	0.191878	0.000000	-1.072613	0.000000	6.243907	0.000000	-1.581731	434.330094	71.684268	0.207841	0.000000	-1.396886	-0.000000	-5.262664	-0.000000
5.640000	0.000000	0.000000	0.000000	0.000000	0.000000	0.000000	0.000000	0.000000	0.000000	0.000000	0.000000	0.000000	0.000000	0.000000	0.000000	0.000000	0.000000	0.000000	0.000000	0.000000	0.000000	0.000000	0.000000	0.000000	0.000000	0.000000	0.000000	0.284909	459.689997	-75.738118	0.191889	0.000000	-1.072604	-0.000000	6.244999	0.000000	-1.598398	434.424888	71.685555	0.207870	0.000000	-1.396894	-0.000000	-5.261900	-0.000000
5.640500	0.000000	0.000000	0.000000	0.000000	0.000000	0.000000	0.000000	0.000000	0.000000	0.000000	0.000000	0.000000	0.000000	0.000000	0.000000	0.000000	0.000000	0.000000	0.000000	0.000000	0.000000	0.000000	0.000000	0.000000	0.000000	0.000000	0.000000	0.298454	459.614369	-75.715798	0.191900	0.000000	-1.072594	-0.000000	6.246259	0.000000	-1.613645	434.518684	71.686636	0.207898	0.000000	-1.396902	-0.000000	-5.261165	-0.000000
5.641000	0.000000	0.000000	0.000000	0.000000	0.000000	0.000000	0.000000	0.000000	0.000000	0.000000	0.000000	0.000000	0.000000	0.000000	0.000000	0.000000	0.000000	0.000000	0.000000	0.000000	0.000000	0.000000	0.000000	0.000000	0.000000	0.000000	0.000000	0.311636	459.540743	-75.693060	0.191911	0.000000	-1.072584	-0.000000	6.247678	0.000000	-1.627503	434.611421	71.687508	0.207927	0.000000	-1.396910	-0.000000	-5.260456	-0.000000
5.641500	0.000000	0.000000	0.000000	0.000000	0.000000	0.000000	0.000000	0.000000	0.000000	0.000000	0.000000	0.000000	0.000000	0.000000	0.000000	0.000000	0.000000	0.000000	0.000000	0.000000	0.000000	0.000000	0.000000	0.000000	0.000000	0.000000	0.000000	0.324433	459.469117	-75.669926	0.191922	0.000000	-1.072574	-0.000000	6.249247	0.000000	-1.640013	434.703041	71.688172	0.207955	0.000000	-1.396917	-0.000000	-5.259768	-0.000000
5.642000	0.000000	0.000000	0.000000	0.000000	0.000000	0.000000	0.000000	0.000000	0.000000	0.000000	0.000000	0.000000	0.000000	0.000000	0.000000	0.000000	0.000000	0.000000	0.000000	0.000000	0.000000	0.000000	0.000000	0.000000	0.000000	0.000000	0.000000	0.336828	459.399490	-75.646428	0.191934	0.000000	-1.072565	-0.000000	6.250955	0.000000	-1.651227	434.793491	71.688628	0.207982	0.000000	-1.396924	-0.000000	-5.259094	-0.000000
5.642500	0.000000	0.000000	0.000000	0.000000	0.000000	0.000000	0.000000	0.000000	0.000000	0.000000	0.000000	0.000000	0.000000	0.000000	0.000000	0.000000	0.000000	0.000000	0.000000	0.000000	0.000000	0.000000	0.000000	0.000000	0.000000	0.000000	0.000000	0.348812	459.331851	-75.622600	0.191945	0.000000	-1.072555	-0.000000	6.252792	0.000000	-1.661198	434.882721	71.688883	0.208010	0.000000	-1.396930	-0.000000	-5.258425	-0.000000
